<svg xmlns="http://www.w3.org/2000/svg" xmlns:xlink="http://www.w3.org/1999/xlink" width="500" zoomAndPan="magnify" viewBox="0 0 375 374.999991" height="500" preserveAspectRatio="xMidYMid meet" version="1.2"><defs><clipPath id="ef23c9af52"><path d="M 0 0 L 373 0 L 373 374.84375 L 0 374.84375 Z M 0 0 "/></clipPath><clipPath id="77661b9e5b"><path d="M 0 0 L 373 0 L 373 374.84375 L 0 374.84375 Z M 0 0 "/></clipPath></defs><g id="de9193eb19"><path style=" stroke:none;fill-rule:nonzero;fill:#16c8c7;fill-opacity:1;" d="M 212.046875 210.957031 C 209.773438 210.164062 206.273438 209.109375 201.558594 207.796875 L 201.558594 265.722656 C 210.105469 264.347656 216.953125 261.496094 222.097656 257.164062 C 229.625 250.816406 233.394531 243.386719 233.394531 234.886719 C 233.394531 229.433594 231.808594 224.785156 228.640625 220.953125 C 225.46875 217.125 219.9375 213.792969 212.046875 210.957031 "/><g clip-rule="nonzero" clip-path="url(#ef23c9af52)"><path style=" stroke:none;fill-rule:nonzero;fill:#16c8c7;fill-opacity:1;" d="M 268.609375 271.882812 C 261.335938 283.429688 251.050781 292.007812 237.753906 297.621094 C 227.601562 301.910156 215.53125 304.554688 201.558594 305.570312 L 201.558594 338.335938 L 171.726562 338.335938 L 171.726562 305.253906 C 150.671875 303.117188 133.929688 296.640625 121.507812 285.8125 C 106.023438 272.332031 96.78125 252.675781 93.769531 226.859375 L 138.648438 222.449219 C 141.351562 237.671875 146.828125 248.84375 155.089844 255.980469 C 159.726562 259.992188 165.273438 262.871094 171.726562 264.628906 L 171.726562 200.011719 C 148.800781 193.980469 132.574219 186.664062 123.066406 178.054688 C 109.039062 165.355469 102.027344 149.875 102.027344 131.613281 C 102.027344 119.859375 105.324219 108.863281 111.921875 98.632812 C 118.519531 88.398438 128.023438 80.605469 140.441406 75.253906 C 149.496094 71.347656 159.933594 68.871094 171.726562 67.816406 L 171.726562 34.933594 L 201.558594 34.933594 L 201.558594 67.96875 C 222.316406 69.988281 238.515625 76.085938 250.144531 86.273438 C 264.636719 98.972656 272.246094 115.921875 272.972656 137.121094 L 226.847656 139.167969 C 224.875 127.308594 220.640625 118.78125 214.148438 113.585938 C 210.8125 110.917969 206.609375 108.9375 201.558594 107.640625 L 201.558594 159.425781 C 220.875 164.304688 235.421875 169.335938 245.15625 174.511719 C 255.910156 180.234375 264.328125 188.050781 270.402344 197.96875 C 276.480469 207.890625 279.519531 220.144531 279.519531 234.726562 C 279.519531 247.953125 275.882812 260.339844 268.609375 271.882812 Z M 186.644531 -1.625 C 83.726562 -1.625 0.296875 82.660156 0.296875 186.636719 C 0.296875 290.609375 83.726562 374.894531 186.644531 374.894531 C 289.5625 374.894531 372.992188 290.609375 372.992188 186.636719 C 372.992188 82.660156 289.5625 -1.625 186.644531 -1.625 "/></g><path style=" stroke:none;fill-rule:nonzero;fill:#16c8c7;fill-opacity:1;" d="M 146.128906 128.464844 C 146.128906 133.921875 148.410156 138.59375 152.984375 142.476562 C 156.386719 145.363281 162.636719 148.316406 171.726562 151.347656 L 171.726562 106.859375 C 164.433594 108.136719 158.335938 110.554688 153.449219 114.140625 C 148.566406 117.707031 146.128906 122.484375 146.128906 128.464844 "/><path style=" stroke:none;fill-rule:nonzero;fill:#16c8c7;fill-opacity:1;" d="M 212.046875 210.957031 C 209.773438 210.164062 206.273438 209.109375 201.558594 207.796875 L 201.558594 265.722656 C 210.105469 264.347656 216.953125 261.496094 222.097656 257.164062 C 229.625 250.816406 233.394531 243.386719 233.394531 234.886719 C 233.394531 229.433594 231.808594 224.785156 228.640625 220.953125 C 225.46875 217.125 219.9375 213.792969 212.046875 210.957031 "/><g clip-rule="nonzero" clip-path="url(#77661b9e5b)"><path style=" stroke:none;fill-rule:nonzero;fill:#16c8c7;fill-opacity:1;" d="M 268.609375 271.882812 C 261.335938 283.429688 251.050781 292.007812 237.753906 297.621094 C 227.601562 301.910156 215.53125 304.554688 201.558594 305.570312 L 201.558594 338.335938 L 171.726562 338.335938 L 171.726562 305.253906 C 150.671875 303.117188 133.929688 296.640625 121.507812 285.8125 C 106.023438 272.332031 96.78125 252.675781 93.769531 226.859375 L 138.648438 222.449219 C 141.351562 237.671875 146.828125 248.84375 155.089844 255.980469 C 159.726562 259.992188 165.273438 262.871094 171.726562 264.628906 L 171.726562 200.011719 C 148.800781 193.980469 132.574219 186.664062 123.066406 178.054688 C 109.039062 165.355469 102.027344 149.875 102.027344 131.613281 C 102.027344 119.859375 105.324219 108.863281 111.921875 98.632812 C 118.519531 88.398438 128.023438 80.605469 140.441406 75.253906 C 149.496094 71.347656 159.933594 68.871094 171.726562 67.816406 L 171.726562 34.933594 L 201.558594 34.933594 L 201.558594 67.96875 C 222.316406 69.988281 238.515625 76.085938 250.144531 86.273438 C 264.636719 98.972656 272.246094 115.921875 272.972656 137.121094 L 226.847656 139.167969 C 224.875 127.308594 220.640625 118.78125 214.148438 113.585938 C 210.8125 110.917969 206.609375 108.9375 201.558594 107.640625 L 201.558594 159.425781 C 220.875 164.304688 235.421875 169.335938 245.15625 174.511719 C 255.910156 180.234375 264.328125 188.050781 270.402344 197.96875 C 276.480469 207.890625 279.519531 220.144531 279.519531 234.726562 C 279.519531 247.953125 275.882812 260.339844 268.609375 271.882812 Z M 186.644531 -1.625 C 83.726562 -1.625 0.296875 82.660156 0.296875 186.636719 C 0.296875 290.609375 83.726562 374.894531 186.644531 374.894531 C 289.5625 374.894531 372.992188 290.609375 372.992188 186.636719 C 372.992188 82.660156 289.5625 -1.625 186.644531 -1.625 "/></g><path style=" stroke:none;fill-rule:nonzero;fill:#16c8c7;fill-opacity:1;" d="M 146.128906 128.464844 C 146.128906 133.921875 148.410156 138.59375 152.984375 142.476562 C 156.386719 145.363281 162.636719 148.316406 171.726562 151.347656 L 171.726562 106.859375 C 164.433594 108.136719 158.335938 110.554688 153.449219 114.140625 C 148.566406 117.707031 146.128906 122.484375 146.128906 128.464844 "/></g></svg>